<?xml version="1.0" ?><svg id="Слой_1" style="enable-background:new 0 0 500 500;" version="1.1" viewBox="0 0 500 500" xml:space="preserve" xmlns="http://www.w3.org/2000/svg" xmlns:xlink="http://www.w3.org/1999/xlink"><style type="text/css">
	.st0{fill:#20211E;}
	.st1{fill:#E1331A;}
</style><g><g><g><path class="st0" d="M384.6,309.8h-84.2v-8.3h84.2c3.5,0,7-4.1,7-8.3V163.4c0-3.9-3.2-7-7-7H216.1c-3.9,0-7,3.2-7,7v30.3h-8.3     v-30.3c0-8.4,6.9-15.3,15.3-15.3h168.5c8.4,0,15.3,6.9,15.3,15.3v129.8C399.9,302,392.7,309.8,384.6,309.8z"/><rect class="st0" height="8.3" width="190.8" x="204.9" y="177.1"/></g><g><path class="st0" d="M276.7,363.7H108.2c-8.2,0-15.3-7.8-15.3-16.6V217.3c0-8.4,6.9-15.3,15.3-15.3h168.5     c8.4,0,15.3,6.9,15.3,15.3v129.8C292,355.9,284.9,363.7,276.7,363.7z M108.2,210.3c-3.9,0-7,3.2-7,7v129.8c0,4.2,3.5,8.3,7,8.3     h168.5c3.5,0,7-4.1,7-8.3V217.3c0-3.9-3.2-7-7-7H108.2z"/><rect class="st0" height="8.3" width="190.8" x="97.1" y="231"/></g></g><g><g><path class="st1" d="M175.9,189.6h-8.3V90c0-2.3,1.9-4.1,4.1-4.1h141.1c2.3,0,4.1,1.9,4.1,4.1v16.6h-8.3V94.2H175.9V189.6z"/><path class="st1" d="M312.8,131.5c-1.5,0-2.8-0.8-3.6-2l-12.4-20.7c-0.8-1.3-0.8-2.9-0.1-4.2s2.1-2.1,3.6-2.1h24.9     c1.5,0,2.9,0.8,3.6,2.1s0.7,2.9-0.1,4.2l-12.4,20.7C315.6,130.7,314.2,131.5,312.8,131.5z M307.7,110.8l5.1,8.5l5.1-8.5H307.7z"/></g><g><path class="st1" d="M312.8,425.9H171.7c-2.3,0-4.1-1.9-4.1-4.1v-16.6h8.3v12.4h132.8v-95.4h8.3v99.5     C316.9,424,315.1,425.9,312.8,425.9z"/><path class="st1" d="M184.2,409.3h-24.9c-1.5,0-2.9-0.8-3.6-2.1c-0.7-1.3-0.7-2.9,0.1-4.2l12.4-20.7c1.5-2.5,5.6-2.5,7.1,0     l12.4,20.7c0.8,1.3,0.8,2.9,0.1,4.2C187,408.5,185.7,409.3,184.2,409.3z M166.6,401h10.2l-5.1-8.5L166.6,401z"/></g></g><rect class="st0" height="8.3" width="33.2" x="117.8" y="255.9"/><rect class="st0" height="8.3" width="33.2" x="234" y="293.2"/><rect class="st0" height="8.3" width="87.1" x="180" y="255.9"/><rect class="st0" height="8.3" width="87.1" x="117.8" y="293.2"/><rect class="st0" height="8.3" width="58.1" x="117.8" y="330.5"/><rect class="st0" height="8.3" width="58.1" x="209.1" y="330.5"/></g></svg>