<svg id="Layer_1" data-name="Layer 1" xmlns="http://www.w3.org/2000/svg" viewBox="0 0 44.95 50.2">
  <defs>
    <style>
      .cls-1 {
        fill: #55b1e3;
      }

      .cls-2 {
        fill: #494949;
      }
    </style>
  </defs>
  <title>symbol</title>
  <path class="cls-1" d="M24.5,37.58c2.23-14.18,5.39-17.91,14.71-17.91,6.42,0,9.31,2.32,9.57,8.32H58.7c-.57-11-6.56-16-17.89-16H13.75l9.82,3.94c-4.92,3.78-7.6,10.62-9.16,21A60.68,60.68,0,0,0,13.82,43H23.88C24,41,24.21,39.48,24.5,37.58Z" transform="translate(-13.75 -12)"/>
  <path class="cls-2" d="M48,36.6c-2.16,14-5.63,18.07-14.64,18.07-6.29,0-9.12-1.68-9.56-7.68h-10c.75,11,7.26,15.2,19.3,15.2,15.49,0,22.11-5.78,25-24.89A50.16,50.16,0,0,0,58.65,32h-10C48.48,33,48.28,34.91,48,36.6Z" transform="translate(-13.75 -12)"/>
</svg>
