<?xml version="1.0" ?><svg id="Слой_1" style="enable-background:new 0 0 500 500;" version="1.1" viewBox="0 0 500 500" xml:space="preserve" xmlns="http://www.w3.org/2000/svg" xmlns:xlink="http://www.w3.org/1999/xlink"><style type="text/css">
	.st0{fill:#20211E;}
	.st1{fill:#E1331A;}
</style><g><g><path class="st0" d="M157.9,292.4L98,253.3l1.7-3.3c16.3-32.2,42.8-58.8,74.8-75.2l4.2-2.1l23.7,67.3l-2.9,1.8    c-17.6,10.7-31.7,27.1-39.8,46.1L157.9,292.4z M108.8,250.4l45.4,29.6c8.6-17.8,21.7-32.8,38.2-43.6l-18.3-52    C146.6,199.5,123.7,222.7,108.8,250.4z"/><path class="st0" d="M289.1,234.6l-3.9-1.4c-21.6-7.9-45.8-7.9-67.5-0.1l-3.9,1.4l-23.6-66.8l3.9-1.4    c36.9-13.2,77.9-13.2,114.7,0.1l3.9,1.4L289.1,234.6z M251.3,218.9c11.2,0,22.2,1.7,32.8,5.1l18-51.1    c-32.6-10.8-68.6-10.9-101.3-0.1l18,51.1C229.3,220.6,240.2,218.9,251.3,218.9z"/><path class="st0" d="M345,293.1l-1.9-4.6c-1-2.3-2-4.6-3.2-6.9l7.4-3.8c0.5,1,1,1.9,1.4,2.9l45.5-29.6    c-3.9-7.3-8.4-14.4-13.3-21.1l6.6-5c6,8.1,11.3,16.7,15.8,25.7l1.7,3.3L345,293.1z"/><path class="st0" d="M311,247.2c-2.5-1.9-5.1-3.7-7.7-5.3l-2.9-1.8l23.8-67.4l4.2,2.2c9.6,4.9,18.8,10.8,27.4,17.5l-5.1,6.6    c-6.9-5.4-14.2-10.2-21.9-14.4l-18.3,52c1.9,1.2,3.7,2.5,5.5,3.9L311,247.2z"/><path class="st0" d="M158.9,364.8H85.4l-0.7-3.3c-2.3-11.2-3.4-22.7-3.4-34.2c0-19.6,3.3-39,9.9-57.4l1.8-5l61.3,40l-0.5,2.8    c-1.3,6.4-1.9,13-1.9,19.6c0,10.9,1.8,21.7,5.2,32L158.9,364.8z M92.2,356.4h55.3c-2.6-9.5-4-19.3-4-29.2c0-6.1,0.5-12.3,1.6-18.4    l-47.8-31.2c-5.1,16-7.7,32.7-7.7,49.6C89.6,337,90.5,346.8,92.2,356.4z"/><path class="st0" d="M417.2,364.8h-73.5l1.9-5.5c3.5-10.3,5.2-21.1,5.2-32c0-6.2-0.6-12.5-1.8-18.8l-0.5-2.8l61.4-40.1l1.7,5    c6.4,18.2,9.6,37.3,9.6,56.6c0,11.5-1.1,23-3.4,34.2L417.2,364.8z M355.1,356.4h55.3c1.7-9.6,2.6-19.4,2.6-29.2    c0-16.6-2.5-33-7.5-48.8l-47.9,31.2c1,5.9,1.4,11.8,1.4,17.6C359.1,337.1,357.8,346.9,355.1,356.4z"/></g><path class="st1" d="M271.1,363.2l-6.4-5.3c41.9-51.6,115.9-149.5,128.2-175.6c-20.3,15.8-87.1,93.3-145.7,165.5l-6.4-5.3   c32.3-39.8,138.9-169.9,156-171.4c1.6-0.1,3.1,0.3,4.2,1.3c4,3.5,8.5,7.4-50.5,87.4C321.7,299.2,286.7,344,271.1,363.2z"/><path class="st1" d="M251.3,381.4c-11.4,0-20.7-9.3-20.7-20.8c0-11.5,9.3-20.8,20.7-20.8s20.7,9.3,20.7,20.8   C272.1,372.1,262.8,381.4,251.3,381.4z M251.3,348.1c-6.9,0-12.4,5.6-12.4,12.5c0,6.9,5.6,12.5,12.4,12.5s12.4-5.6,12.4-12.5   C263.8,353.7,258.2,348.1,251.3,348.1z"/></g></svg>