<?xml version="1.0" ?><svg id="Слой_1" style="enable-background:new 0 0 500 500;" version="1.1" viewBox="0 0 500 500" xml:space="preserve" xmlns="http://www.w3.org/2000/svg" xmlns:xlink="http://www.w3.org/1999/xlink"><style type="text/css">
	.st0{fill:#E1331A;}
	.st1{fill:#20211E;}
</style><g><g><g><g><path class="st0" d="M340.9,343.8c-11.4,0-20.7-9.3-20.7-20.7s9.3-20.7,20.7-20.7s20.7,9.3,20.7,20.7S352.4,343.8,340.9,343.8z       M340.9,310.6c-6.9,0-12.4,5.6-12.4,12.4s5.6,12.4,12.4,12.4s12.4-5.6,12.4-12.4S347.8,310.6,340.9,310.6z"/><path class="st0" d="M398.8,299.2c-11.4,0-20.7-9.3-20.7-20.7s9.3-20.7,20.7-20.7s20.7,9.3,20.7,20.7S410.3,299.2,398.8,299.2z       M398.8,266c-6.9,0-12.4,5.6-12.4,12.4s5.6,12.4,12.4,12.4s12.4-5.6,12.4-12.4S405.7,266,398.8,266z"/><rect class="st0" height="24.2" transform="matrix(0.7177 -0.6963 0.6963 0.7177 -120.3524 308.0751)" width="8.3" x="315.7" y="290.4"/><path class="st0" d="M355.7,319.2c-1.2,0-2.4-0.5-3.2-1.5c-1.4-1.8-1.2-4.4,0.6-5.8l30.8-25.1c1.8-1.4,4.4-1.2,5.8,0.6      c1.4,1.8,1.2,4.4-0.6,5.8l-30.8,25.1C357.6,318.9,356.6,319.2,355.7,319.2z"/></g><g><path class="st0" d="M341.1,132.4c-11.4,0-20.7-9.3-20.7-20.7s9.3-20.7,20.7-20.7s20.7,9.3,20.7,20.7S352.5,132.4,341.1,132.4z       M341.1,99.2c-6.9,0-12.4,5.6-12.4,12.4c0,6.9,5.6,12.4,12.4,12.4c6.9,0,12.4-5.6,12.4-12.4C353.5,104.8,348,99.2,341.1,99.2z"/><path class="st0" d="M399,177c-11.4,0-20.7-9.3-20.7-20.7s9.3-20.7,20.7-20.7c11.4,0,20.7,9.3,20.7,20.7S410.4,177,399,177z       M399,143.8c-6.9,0-12.4,5.6-12.4,12.4s5.6,12.4,12.4,12.4c6.9,0,12.4-5.6,12.4-12.4S405.8,143.8,399,143.8z"/><rect class="st0" height="8.3" transform="matrix(0.6757 -0.7372 0.7372 0.6757 6.7153 279.2007)" width="22.9" x="309.2" y="127.8"/><path class="st0" d="M386.7,148.9c-0.9,0-1.8-0.3-2.6-0.9l-30.8-25.1c-1.8-1.4-2-4.1-0.6-5.8c1.4-1.8,4.1-2,5.8-0.6l30.8,25.1      c1.8,1.4,2,4.1,0.6,5.8C389.1,148.4,387.9,148.9,386.7,148.9z"/></g></g><g><g><path class="st0" d="M158.5,343.8c-11.4,0-20.7-9.3-20.7-20.7s9.3-20.7,20.7-20.7s20.7,9.3,20.7,20.7S169.9,343.8,158.5,343.8z       M158.5,310.6c-6.9,0-12.4,5.6-12.4,12.4s5.6,12.4,12.4,12.4s12.4-5.6,12.4-12.4S165.4,310.6,158.5,310.6z"/><path class="st0" d="M100.6,299.2c-11.4,0-20.7-9.3-20.7-20.7s9.3-20.7,20.7-20.7s20.7,9.3,20.7,20.7S112,299.2,100.6,299.2z       M100.6,266c-6.9,0-12.4,5.6-12.4,12.4s5.6,12.4,12.4,12.4c6.9,0,12.4-5.6,12.4-12.4S107.5,266,100.6,266z"/><rect class="st0" height="8.3" transform="matrix(0.7071 -0.7071 0.7071 0.7071 -161.4636 215.6838)" width="23.8" x="167.7" y="298.6"/><path class="st0" d="M143.7,319.2c-0.9,0-1.8-0.3-2.6-0.9l-30.8-25.1c-1.8-1.4-2-4.1-0.6-5.8c1.4-1.8,4.1-2,5.8-0.6l30.8,25.1      c1.8,1.4,2,4.1,0.6,5.8C146.1,318.7,144.9,319.2,143.7,319.2z"/></g><g><path class="st0" d="M158.3,132.4c-11.4,0-20.7-9.3-20.7-20.7s9.3-20.7,20.7-20.7s20.7,9.3,20.7,20.7S169.8,132.4,158.3,132.4z       M158.3,99.2c-6.9,0-12.4,5.6-12.4,12.4c0,6.9,5.6,12.4,12.4,12.4s12.4-5.6,12.4-12.4C170.8,104.8,165.2,99.2,158.3,99.2z"/><path class="st0" d="M100.5,177c-11.4,0-20.7-9.3-20.7-20.7s9.3-20.7,20.7-20.7s20.7,9.3,20.7,20.7S111.9,177,100.5,177z       M100.5,143.8c-6.9,0-12.4,5.6-12.4,12.4s5.6,12.4,12.4,12.4c6.9,0,12.4-5.6,12.4-12.4S107.3,143.8,100.5,143.8z"/><rect class="st0" height="20.3" transform="matrix(0.7284 -0.6852 0.6852 0.7284 -41.3665 157.5121)" width="8.3" x="173.8" y="120.8"/><path class="st0" d="M112.7,148.9c-1.2,0-2.4-0.5-3.2-1.5c-1.4-1.8-1.2-4.4,0.6-5.8l30.8-25.1c1.8-1.4,4.4-1.2,5.8,0.6      c1.4,1.8,1.2,4.4-0.6,5.8L115.4,148C114.6,148.6,113.7,148.9,112.7,148.9z"/></g></g><g><path class="st1" d="M249.7,306.5c-50.3,0-91.2-40.9-91.2-91.2s40.9-91.2,91.2-91.2s91.2,40.9,91.2,91.2S300,306.5,249.7,306.5z      M249.7,132.4c-45.7,0-82.9,37.2-82.9,82.9s37.2,82.9,82.9,82.9c45.7,0,82.9-37.2,82.9-82.9S295.4,132.4,249.7,132.4z"/><path class="st1" d="M249.7,430.9c-11.4,0-20.7-9.3-20.7-20.7v-58c0-2.3,1.9-4.1,4.1-4.1h33.2c2.3,0,4.1,1.9,4.1,4.1v58     C270.5,421.6,261.2,430.9,249.7,430.9z M237.3,356.3v53.9c0,6.9,5.6,12.4,12.4,12.4s12.4-5.6,12.4-12.4v-53.9H237.3z"/><path class="st1" d="M258,356.3h-16.6c-2.3,0-4.1-1.9-4.1-4.1v-49.8c0-2.3,1.9-4.1,4.1-4.1c2.3,0,4.1,1.9,4.1,4.1V348h8.3v-45.6     c0-2.3,1.9-4.1,4.1-4.1c2.3,0,4.1,1.9,4.1,4.1v49.8C262.2,354.4,260.3,356.3,258,356.3z"/><path class="st1" d="M266.3,331.4h-33.2c-2.3,0-4.1-1.9-4.1-4.1c0-2.3,1.9-4.1,4.1-4.1h33.2c2.3,0,4.1,1.9,4.1,4.1     C270.5,329.5,268.6,331.4,266.3,331.4z"/></g></g><path class="st1" d="M249.7,285.8c-38.9,0-70.5-31.6-70.5-70.5s31.6-70.5,70.5-70.5s70.5,31.6,70.5,70.5S288.6,285.8,249.7,285.8z    M249.7,153.1c-34.3,0-62.2,27.9-62.2,62.2s27.9,62.2,62.2,62.2c34.3,0,62.2-27.9,62.2-62.2S284,153.1,249.7,153.1z"/></g></svg>