<?xml version="1.0" ?><svg id="Слой_1" style="enable-background:new 0 0 500 500;" version="1.1" viewBox="0 0 500 500" xml:space="preserve" xmlns="http://www.w3.org/2000/svg" xmlns:xlink="http://www.w3.org/1999/xlink"><style type="text/css">
	.st0{fill:#E13217;}
	.st1{fill:#221F1F;}
</style><g><g><g><path class="st0" d="M223.6,308.9c-5.6,0-10-1.6-13-4.9c-5.6-6.1-5.2-16.6,1.2-29.7c5.9-12.2,16.3-25.4,29.3-37.4     c13-11.9,27.1-21.2,39.7-26.1c13.6-5.2,24.2-4.8,29.7,1.3c5.6,6.1,5.2,16.6-1.2,29.7c-5.9,12.2-16.3,25.4-29.3,37.4     c-13,11.9-27.1,21.2-39.7,26.1C234,307.7,228.4,308.9,223.6,308.9z M297.5,213.8c-3.9,0-8.8,1.1-14.3,3.2     c-11.9,4.6-25.2,13.4-37.6,24.8c-12.4,11.4-22.3,24-27.8,35.4c-5,10.3-5.9,18.5-2.3,22.3c3.6,3.9,11.7,3.7,22.5-0.4     c11.9-4.6,25.2-13.4,37.6-24.8c12.4-11.4,22.3-24,27.8-35.4c5-10.3,5.9-18.5,2.3-22.3C303.9,214.8,301.1,213.8,297.5,213.8z"/><path class="st0" d="M297.5,308.9c-4.8,0-10.4-1.2-16.7-3.6c-12.6-4.9-26.7-14.1-39.7-26.1c-13-12-23.4-25.2-29.3-37.4     c-6.4-13.1-6.8-23.7-1.2-29.7c5.6-6.1,16.1-6.5,29.7-1.3c12.6,4.9,26.7,14.1,39.7,26.1c13,11.9,23.4,25.2,29.3,37.4     c6.4,13.1,6.8,23.7,1.2,29.7C307.5,307.3,303.1,308.9,297.5,308.9z M223.6,213.8c-3.6,0-6.4,0.9-8.1,2.8     c-3.6,3.9-2.7,12,2.3,22.3c5.6,11.4,15.4,24,27.8,35.4c12.4,11.4,25.8,20.2,37.6,24.8c10.7,4.1,18.9,4.3,22.5,0.4     c3.6-3.9,2.7-12-2.3-22.3c-5.6-11.4-15.4-24-27.8-35.4c-12.4-11.4-25.8-20.2-37.6-24.8C232.3,214.9,227.5,213.8,223.6,213.8z"/></g><path class="st0" d="M260.5,271.2c-7.7,0-13.9-6.2-13.9-13.9c0-7.7,6.2-13.9,13.9-13.9c7.7,0,13.9,6.2,13.9,13.9    C274.4,265,268.2,271.2,260.5,271.2z M260.5,250.1c-4,0-7.3,3.3-7.3,7.3c0,4,3.3,7.3,7.3,7.3c4,0,7.3-3.3,7.3-7.3    C267.8,253.3,264.5,250.1,260.5,250.1z"/></g><g><g><path class="st1" d="M302,375h-82.9c-1.8,0-3.3-1.5-3.3-3.3v-30.2c-0.6-0.8-2.6-3.1-7.7-6.6c-23.8-16.4-38-44-38-73.8     c0-49.9,40.6-90.5,90.5-90.5c49.9,0,90.5,40.6,90.5,90.5c0,30.7-14.9,59.2-38.8,74.3c-7.6,4.8-7,13.4-7,13.5l0,22.7     C305.3,373.5,303.8,375,302,375z M222.4,368.4h76.3v-19.1c0-0.2-0.9-12.5,10.1-19.4c22-13.9,35.7-40.3,35.7-68.7     c0-46.3-37.6-83.9-83.9-83.9c-46.3,0-83.9,37.6-83.9,83.9c0,27.6,13.1,53.1,35.2,68.3c8.2,5.7,10,9,10.3,9.9     c0.2,0.4,0.2,0.8,0.2,1.2V368.4z"/><path class="st1" d="M301.1,399.4H219c-1.8,0-3.3-1.5-3.3-3.3s1.5-3.3,3.3-3.3h82.1c1.8,0,3.3,1.5,3.3,3.3     S302.9,399.4,301.1,399.4z"/><path class="st1" d="M285.9,423.7h-51.7c-1.8,0-3.3-1.5-3.3-3.3s1.5-3.3,3.3-3.3h51.7c1.8,0,3.3,1.5,3.3,3.3     S287.7,423.7,285.9,423.7z"/></g><g><path class="st1" d="M258.4,150.3c-1.8,0-3.3-1.5-3.3-3.3V93.1c0-1.8,1.5-3.3,3.3-3.3s3.3,1.5,3.3,3.3V147     C261.7,148.8,260.2,150.3,258.4,150.3z"/><path class="st1" d="M169.8,180.7c-0.8,0-1.7-0.3-2.3-1l-38.1-38.1c-1.3-1.3-1.3-3.4,0-4.7c1.3-1.3,3.4-1.3,4.7,0l38.1,38.1     c1.3,1.3,1.3,3.4,0,4.7C171.5,180.4,170.7,180.7,169.8,180.7z"/><path class="st1" d="M351.2,180.7c-0.9,0-1.7-0.3-2.3-1c-1.3-1.3-1.3-3.4,0-4.7l38.1-38.1c1.3-1.3,3.4-1.3,4.7,0     c1.3,1.3,1.3,3.4,0,4.7l-38.1,38.1C352.9,180.4,352,180.7,351.2,180.7z"/></g></g></g></svg>