<?xml version="1.0" ?><svg id="Слой_1" style="enable-background:new 0 0 500 500;" version="1.1" viewBox="0 0 500 500" xml:space="preserve" xmlns="http://www.w3.org/2000/svg" xmlns:xlink="http://www.w3.org/1999/xlink"><style type="text/css">
	.st0{fill:#1E1F1D;}
	.st1{fill:#E13217;}
</style><g><g><g><path class="st0" d="M373.5,406.1H148.3c-1.7,0-3.1-1.4-3.1-3.1V112.3c0-1.7,1.4-3.1,3.1-3.1H312c0.8,0,1.6,0.3,2.2,0.9     l61.4,61.4c0.6,0.6,0.9,1.4,0.9,2.2V403C376.5,404.7,375.1,406.1,373.5,406.1z M151.3,399.9h219V175l-59.6-59.6H151.3V399.9z"/><g><path class="st1" d="M184.8,189.1c-6.7,0-12.9-4.5-14.8-11.2l0,0c-2.3-8.2,2.5-16.6,10.7-18.9c3.9-1.1,8.1-0.6,11.7,1.4      c3.6,2,6.1,5.3,7.2,9.3c1.1,3.9,0.6,8.1-1.4,11.7c-2,3.6-5.3,6.1-9.3,7.2C187.5,188.9,186.1,189.1,184.8,189.1z M175.9,176.2      c0.7,2.4,2.2,4.3,4.3,5.5c2.1,1.2,4.6,1.5,7,0.8c2.4-0.7,4.3-2.2,5.5-4.3c1.2-2.1,1.5-4.6,0.8-7c-0.7-2.4-2.2-4.3-4.3-5.5      c-2.1-1.2-4.6-1.5-7-0.8C177.4,166.2,174.5,171.3,175.9,176.2L175.9,176.2z"/><path class="st1" d="M283.4,175.3H222c-1.7,0-3.1-1.4-3.1-3.1c0-1.7,1.4-3.1,3.1-3.1h61.4c1.7,0,3.1,1.4,3.1,3.1      C286.4,173.9,285.1,175.3,283.4,175.3z"/></g><g><path class="st1" d="M184.8,238.2c-6.7,0-12.9-4.5-14.8-11.2l0,0c-2.3-8.2,2.5-16.6,10.7-18.9c3.9-1.1,8.1-0.6,11.7,1.4      c3.6,2,6.1,5.3,7.2,9.3c1.1,3.9,0.6,8.1-1.4,11.7c-2,3.6-5.3,6.1-9.3,7.2C187.5,238,186.1,238.2,184.8,238.2z M175.9,225.3      c0.7,2.4,2.2,4.3,4.3,5.5c2.1,1.2,4.6,1.5,7,0.8c2.4-0.7,4.3-2.2,5.5-4.3c1.2-2.1,1.5-4.6,0.8-7c-0.7-2.4-2.2-4.3-4.3-5.5      c-2.1-1.2-4.6-1.5-7-0.8C177.4,215.3,174.5,220.4,175.9,225.3L175.9,225.3z"/><path class="st1" d="M344.8,225.9H222c-1.7,0-3.1-1.4-3.1-3.1s1.4-3.1,3.1-3.1h122.8c1.7,0,3.1,1.4,3.1,3.1      S346.5,225.9,344.8,225.9z"/></g><path class="st1" d="M344.8,303.7H176.9c-1.7,0-3.1-1.4-3.1-3.1v-36.8c0-1.7,1.4-3.1,3.1-3.1h167.9c1.7,0,3.1,1.4,3.1,3.1v36.8     C347.9,302.3,346.5,303.7,344.8,303.7z M180,297.6h161.7v-30.7H180V297.6z"/><path class="st1" d="M344.8,340.6H176.9c-1.7,0-3.1-1.4-3.1-3.1v-36.8c0-1.7,1.4-3.1,3.1-3.1h167.9c1.7,0,3.1,1.4,3.1,3.1v36.8     C347.9,339.2,346.5,340.6,344.8,340.6z M180,334.4h161.7v-30.7H180V334.4z"/><path class="st1" d="M344.8,377.4H176.9c-1.7,0-3.1-1.4-3.1-3.1v-36.8c0-1.7,1.4-3.1,3.1-3.1h167.9c1.7,0,3.1,1.4,3.1,3.1v36.8     C347.9,376,346.5,377.4,344.8,377.4z M180,371.3h161.7v-30.7H180V371.3z"/><path class="st0" d="M373.5,176.8H312c-1.7,0-3.1-1.4-3.1-3.1v-61.4c0-1.2,0.7-2.4,1.9-2.8c1.2-0.5,2.5-0.2,3.3,0.7l61.4,61.4     c0.9,0.9,1.1,2.2,0.7,3.3C375.8,176,374.7,176.8,373.5,176.8z M315.1,170.7H366l-50.9-50.9V170.7z"/></g><g><g><path class="st0" d="M419,349.5c-0.7,0-1.4-0.2-2-0.7c-4.7-4.1-10.6-10.6-12-18.6c0-0.1-0.1-0.5-0.2-1c-0.6-2.6-1.8-8-1.8-11.1      l0-32.7l-4-26.1c-0.1-0.9-0.4-1.3-0.4-1.3l-15.2-23.6c-1.8,0.7-4.5,2.2-5.8,5.4c-1.7,4-1.7,11.8,8,26.5c2,3.6,0.2,19-1.6,31.4      c-0.2,1.7-1.8,2.8-3.5,2.6c-1.7-0.2-2.8-1.8-2.6-3.5c1.7-11.2,3-24.7,2.4-27.4c-8.9-13.5-11.7-24.3-8.3-32.1      c3.5-7.9,11.9-9.4,12.3-9.4c1.2-0.2,2.4,0.3,3.1,1.4l16.4,25.4c0.1,0.1,1,1.3,1.4,3.8l4,26.4c0,0.2,0,0.3,0,0.5l0,32.9      c0,2.4,1.2,7.7,1.7,9.7c0.2,0.7,0.3,1.2,0.3,1.3c1,6.2,5.9,11.6,9.9,14.9c1.3,1.1,1.4,3,0.3,4.3      C420.7,349.2,419.8,349.5,419,349.5z"/><g><path class="st0" d="M375.7,392.9c-0.8,0-1.6-0.3-2.2-0.9c-1.2-1.2-1.2-3.2,0-4.3l48.5-47.7c1.2-1.2,3.1-1.2,4.3,0l19.8,19.6       c1.2,1.2,1.2,3.1,0,4.3c-1.2,1.2-3.1,1.2-4.3,0l-17.6-17.5L377.9,392C377.3,392.6,376.5,392.9,375.7,392.9z"/><path class="st0" d="M398.5,420.9c-0.8,0-1.6-0.3-2.2-1l-23.1-24.7c-1.2-1.2-1.1-3.2,0.1-4.3c1.2-1.2,3.2-1.1,4.3,0.1       l23.1,24.7c1.2,1.2,1.1,3.2-0.1,4.3C400,420.6,399.2,420.9,398.5,420.9z"/></g></g></g><g><path class="st0" d="M102.6,349.5c-0.9,0-1.7-0.4-2.3-1.1c-1.1-1.3-1-3.2,0.3-4.3c4-3.4,8.9-8.7,9.9-14.9c0-0.2,0.1-0.7,0.3-1.4     c0.5-2,1.7-7.3,1.7-9.7l0-33c0-0.2,0-0.3,0-0.5l4-26.4c0.4-2.5,1.3-3.8,1.6-4.2l16.2-25.1c0.7-1,1.9-1.6,3.1-1.4     c0.4,0.1,8.8,1.5,12.3,9.4c3.4,7.8,0.6,18.6-8.3,32.1c-0.6,2.7,0.7,16.2,2.4,27.4c0.2,1.7-0.9,3.2-2.6,3.5     c-1.7,0.2-3.2-0.9-3.5-2.6c-1.8-12.4-3.6-27.9-1.7-31.2c9.9-14.9,9.8-22.7,8.1-26.7c-1.3-3-4-4.6-5.8-5.3L123,257.8     c-0.1,0.1-0.3,0.5-0.5,1.5l-4,26.1l0,32.7c0,3.1-1.2,8.5-1.8,11.1c-0.1,0.5-0.2,0.9-0.2,1c-1.3,8-7.2,14.6-12,18.6     C104,349.3,103.3,349.5,102.6,349.5z"/><g><path class="st0" d="M145.8,392.9c-0.8,0-1.6-0.3-2.2-0.9l-46.3-45.6l-17.6,17.5c-1.2,1.2-3.1,1.2-4.3,0c-1.2-1.2-1.2-3.2,0-4.3      l19.8-19.6c1.2-1.2,3.1-1.2,4.3,0l48.5,47.7c1.2,1.2,1.2,3.1,0,4.3C147.4,392.5,146.6,392.9,145.8,392.9z"/><path class="st0" d="M123.1,420.9c-0.8,0-1.5-0.3-2.1-0.8c-1.2-1.2-1.3-3.1-0.1-4.3l23.1-24.7c1.2-1.2,3.1-1.3,4.3-0.1      c1.2,1.2,1.3,3.1,0.1,4.3L125.3,420C124.7,420.6,123.9,420.9,123.1,420.9z"/></g></g><path class="st0" d="M373.5,406.1c-1.7,0-3.1-1.4-3.1-3.1v-77.8c0-1.7,1.4-3.1,3.1-3.1s3.1,1.4,3.1,3.1V403    C376.5,404.7,375.1,406.1,373.5,406.1z"/><path class="st0" d="M148.3,406.1c-1.7,0-3.1-1.4-3.1-3.1v-77.8c0-1.7,1.4-3.1,3.1-3.1s3.1,1.4,3.1,3.1V403    C151.3,404.7,150,406.1,148.3,406.1z"/></g></g></svg>