<?xml version="1.0" ?><svg id="Слой_1" style="enable-background:new 0 0 500 500;" version="1.1" viewBox="0 0 500 500" xml:space="preserve" xmlns="http://www.w3.org/2000/svg" xmlns:xlink="http://www.w3.org/1999/xlink"><style type="text/css">
	.st0{fill:#1E1F1D;}
	.st1{fill:#DF331B;}
</style><g><g><path class="st0" d="M270.8,407c-1.3,0-2.5-0.8-3-2l-7-17.2c-8.3,1.6-16.9,1.4-25.2-0.4l-7.6,17c-0.7,1.6-2.6,2.3-4.2,1.6    l-17.3-7.7c-0.8-0.3-1.4-1-1.7-1.8c-0.3-0.8-0.3-1.7,0.1-2.5l7.6-17c-6.9-4.9-12.7-11.3-17.2-18.5l-17.5,6.3    c-1.7,0.6-3.5-0.3-4.1-1.9l-6.4-17.9c-0.3-0.8-0.2-1.7,0.1-2.5c0.4-0.8,1-1.4,1.8-1.7l17.5-6.3c-1.1-7.5-0.8-15.2,0.8-22.7    l-17-7.6c-1.6-0.7-2.3-2.6-1.6-4.2l7.7-17.3c0.3-0.8,1-1.4,1.8-1.7c0.8-0.3,1.7-0.3,2.5,0.1l17,7.6c4.4-6.2,9.9-11.5,16.3-15.8    l-7-17.3c-0.3-0.8-0.3-1.7,0-2.5c0.3-0.8,1-1.4,1.8-1.7l17.6-7.1c1.6-0.7,3.5,0.1,4.2,1.8l7,17.2c8.3-1.6,16.9-1.4,25.2,0.4    l7.6-17c0.7-1.6,2.6-2.3,4.2-1.6l17.3,7.7c0.8,0.3,1.4,1,1.7,1.8c0.3,0.8,0.3,1.7-0.1,2.5l-7.6,17c6.9,4.9,12.7,11.2,17.1,18.5    l17.5-6.3c1.7-0.6,3.5,0.3,4.1,1.9l6.4,17.8c0.3,0.8,0.3,1.7-0.1,2.5c-0.4,0.8-1,1.4-1.8,1.7l-17.5,6.3c1.1,7.5,0.8,15.2-0.8,22.7    l17,7.6c0.8,0.3,1.4,1,1.7,1.8c0.3,0.8,0.3,1.7-0.1,2.5l-7.8,17.3c-0.7,1.6-2.6,2.3-4.2,1.6l-17-7.6c-4.4,6.2-10,11.6-16.3,15.8    l7,17.3c0.3,0.8,0.3,1.7,0,2.5c-0.3,0.8-1,1.4-1.7,1.7l-17.6,7.1C271.7,406.9,271.2,407,270.8,407z M262.8,380.8    c1.3,0,2.5,0.8,3,2l6.8,16.8l11.6-4.7l-6.8-16.8c-0.6-1.5,0-3.1,1.3-4c7.2-4.4,13.5-10.4,18.1-17.5c0.9-1.3,2.6-1.8,4-1.2    l16.5,7.4l5.1-11.5L306,344c-1.4-0.6-2.2-2.2-1.8-3.8c2.2-8.2,2.5-16.9,0.9-25.2c-0.3-1.6,0.6-3.1,2.1-3.6l17-6.1l-4.3-11.8    l-17,6.1c-1.5,0.5-3.1-0.1-3.9-1.5c-4.5-8.2-10.9-15.1-18.7-20.1c-1.3-0.9-1.8-2.6-1.2-4l7.4-16.5l-11.4-5.1l-7.4,16.5    c-0.6,1.4-2.2,2.2-3.8,1.8c-9-2.4-18.5-2.6-27.5-0.5c-1.5,0.4-3.1-0.5-3.7-1.9l-6.8-16.8l-11.6,4.7l6.8,16.8c0.6,1.5,0,3.1-1.3,4    c-7.4,4.5-13.5,10.4-18.2,17.5c-0.9,1.3-2.6,1.8-4,1.2l-16.5-7.4l-5.1,11.5l16.5,7.4c1.4,0.6,2.2,2.2,1.8,3.8    c-2.2,8.2-2.5,16.9-0.9,25.2c0.3,1.6-0.6,3.1-2.1,3.6l-17,6.1l4.3,11.8l17-6.1c1.5-0.5,3.1,0.1,3.9,1.5c4.5,8.1,11,15.1,18.7,20.2    c1.3,0.9,1.8,2.6,1.2,4l-7.4,16.5l11.4,5.1l7.4-16.5c0.6-1.4,2.2-2.2,3.8-1.8c9,2.4,18.5,2.6,27.5,0.5    C262.4,380.9,262.6,380.8,262.8,380.8z"/><path class="st0" d="M249.3,352.9c-15.1,0-27.4-12.3-27.4-27.4s12.3-27.4,27.4-27.4s27.4,12.3,27.4,27.4S264.4,352.9,249.3,352.9z     M249.3,304.6c-11.6,0-21,9.4-21,21c0,11.6,9.4,21,21,21c11.6,0,21-9.4,21-21C270.3,314,260.9,304.6,249.3,304.6z"/></g><g><path class="st1" d="M279.1,231.2c-1.8,0-3.2-1.4-3.2-3.2v-59.9c0-1.8,1.4-3.2,3.2-3.2s3.2,1.4,3.2,3.2V228    C282.3,229.8,280.9,231.2,279.1,231.2z"/><path class="st1" d="M219.2,231.2c-1.8,0-3.2-1.4-3.2-3.2v-59.9c0-1.8,1.4-3.2,3.2-3.2s3.2,1.4,3.2,3.2V228    C222.4,229.8,220.9,231.2,219.2,231.2z"/><path class="st1" d="M279.1,167c-8.9,0-16.1-7.2-16.1-16.1s7.2-16.1,16.1-16.1c8.9,0,16.1,7.2,16.1,16.1S288,167,279.1,167z     M279.1,141.3c-5.3,0-9.6,4.3-9.6,9.6c0,5.3,4.3,9.6,9.6,9.6c5.3,0,9.6-4.3,9.6-9.6C288.8,145.6,284.4,141.3,279.1,141.3z"/><g><path class="st1" d="M313.4,274.1c-1.8,0-3.2-1.4-3.2-3.2v-85.6c0-1.8,1.4-3.2,3.2-3.2h51.4c1.8,0,3.2,1.4,3.2,3.2     s-1.4,3.2-3.2,3.2h-48.2v82.4C316.6,272.6,315.1,274.1,313.4,274.1z"/><path class="st1" d="M340.7,328.1c-1.1,0-2.2-0.6-2.8-1.7c-0.8-1.6-0.3-3.5,1.3-4.4l26.7-14.6v-70.9c0-1.8,1.4-3.2,3.2-3.2h30     c1.8,0,3.2,1.4,3.2,3.2s-1.4,3.2-3.2,3.2h-26.8v69.6c0,1.2-0.6,2.3-1.7,2.8l-28.4,15.5C341.7,328,341.2,328.1,340.7,328.1z"/><path class="st1" d="M377.6,201.3c-8.9,0-16.1-7.2-16.1-16.1c0-8.9,7.2-16.1,16.1-16.1c8.9,0,16.1,7.2,16.1,16.1     C393.7,194.1,386.5,201.3,377.6,201.3z M377.6,175.6c-5.3,0-9.6,4.3-9.6,9.6c0,5.3,4.3,9.6,9.6,9.6s9.6-4.3,9.6-9.6     C387.2,179.9,382.9,175.6,377.6,175.6z"/><path class="st1" d="M411.9,252.6c-8.9,0-16.1-7.2-16.1-16.1s7.2-16.1,16.1-16.1c8.9,0,16.1,7.2,16.1,16.1     S420.7,252.6,411.9,252.6z M411.9,227c-5.3,0-9.6,4.3-9.6,9.6c0,5.3,4.3,9.6,9.6,9.6s9.6-4.3,9.6-9.6     C421.5,231.3,417.2,227,411.9,227z"/></g><g><path class="st1" d="M189.2,274.1c-1.8,0-3.2-1.4-3.2-3.2v-82.4h-48.2c-1.8,0-3.2-1.4-3.2-3.2s1.4-3.2,3.2-3.2h51.4     c1.8,0,3.2,1.4,3.2,3.2v85.6C192.4,272.6,191,274.1,189.2,274.1z"/><path class="st1" d="M161.9,328.1c-0.5,0-1-0.1-1.5-0.4L132,312.2c-1-0.6-1.7-1.6-1.7-2.8v-69.6h-26.8c-1.8,0-3.2-1.4-3.2-3.2     s1.4-3.2,3.2-3.2h30c1.8,0,3.2,1.4,3.2,3.2v70.9l26.7,14.6c1.6,0.9,2.1,2.8,1.3,4.4C164.1,327.5,163,328.1,161.9,328.1z"/><path class="st1" d="M125,201.3c-8.9,0-16.1-7.2-16.1-16.1c0-8.9,7.2-16.1,16.1-16.1s16.1,7.2,16.1,16.1     C141,194.1,133.8,201.3,125,201.3z M125,175.6c-5.3,0-9.6,4.3-9.6,9.6c0,5.3,4.3,9.6,9.6,9.6c5.3,0,9.6-4.3,9.6-9.6     C134.6,179.9,130.3,175.6,125,175.6z"/><path class="st1" d="M90.7,252.6c-8.9,0-16.1-7.2-16.1-16.1s7.2-16.1,16.1-16.1s16.1,7.2,16.1,16.1S99.6,252.6,90.7,252.6z      M90.7,227c-5.3,0-9.6,4.3-9.6,9.6c0,5.3,4.3,9.6,9.6,9.6s9.6-4.3,9.6-9.6C100.4,231.3,96,227,90.7,227z"/></g><path class="st1" d="M219.2,167c-8.9,0-16.1-7.2-16.1-16.1s7.2-16.1,16.1-16.1c8.9,0,16.1,7.2,16.1,16.1S228,167,219.2,167z     M219.2,141.3c-5.3,0-9.6,4.3-9.6,9.6c0,5.3,4.3,9.6,9.6,9.6c5.3,0,9.6-4.3,9.6-9.6C228.8,145.6,224.5,141.3,219.2,141.3z"/></g></g></svg>