<?xml version="1.0" ?><svg id="Слой_1" style="enable-background:new 0 0 500 500;" version="1.1" viewBox="0 0 500 500" xml:space="preserve" xmlns="http://www.w3.org/2000/svg" xmlns:xlink="http://www.w3.org/1999/xlink"><style type="text/css">
	.st0{fill:#21211E;}
	.st1{fill:#DE331B;}
</style><g><path class="st0" d="M322.5,252.2H290c-2.3,0-4.1-1.8-4.1-4.1c0-2.3,1.8-4.1,4.1-4.1h32.5c2.3,0,4.1-1.8,4.1-4.1v-81.8   c0-2.3-1.8-4.1-4.1-4.1H183.2c-2.3,0-4.1,1.8-4.1,4.1v81.8c0,2.3,1.8,4.1,4.1,4.1h32c2.3,0,4.1,1.8,4.1,4.1c0,2.3-1.8,4.1-4.1,4.1   h-32c-6.8,0-12.3-5.5-12.3-12.3v-81.8c0-6.8,5.5-12.3,12.3-12.3h139.4c6.8,0,12.3,5.5,12.3,12.3v81.8   C334.8,246.7,329.3,252.2,322.5,252.2z"/><g><path class="st0" d="M415.2,288c-0.9,0-1.8-0.2-2.7-0.6l-78.7-33.6c-4.7-2-7.1-8.5-7.1-13.9v-81.8c0-4.3,1.5-7.7,4.1-9.4    c1.9-1.2,4.2-1.4,6.4-0.4l78.7,36c4.6,2.1,7,8.5,7,13.8v79.6c0,4.2-1.5,7.6-4,9.2C417.7,287.7,416.4,288,415.2,288z M415.6,279.9    L415.6,279.9C415.6,279.9,415.6,279.9,415.6,279.9z M335,156.4c-0.1,0.4-0.2,1-0.2,1.7v81.8c0,3.3,1.4,6,2.2,6.4l77.4,33    c0.1-0.4,0.2-1,0.2-1.7v-79.6c0-3.4-1.6-6-2.3-6.4L335,156.4z"/><path class="st0" d="M369.4,248.8c-0.6,0-1.1-0.1-1.6-0.3l-17.2-7.5c-1.7-0.8-2.7-2.6-2.4-4.5l8.6-49.2c0.3-2,2-3.4,4-3.4    c0,0,0,0,0,0c2,0,3.7,1.5,4,3.5l8.6,56.6c0.2,1.5-0.4,2.9-1.5,3.9C371.2,248.5,370.3,248.8,369.4,248.8z M356.8,234.8l7.5,3.2    l-3.7-24.6L356.8,234.8z"/><path class="st0" d="M400.8,262.4c-0.6,0-1.1-0.1-1.6-0.3l-17.3-7.5c-1.9-0.8-2.9-3-2.3-5l8.6-26.2c0.6-1.7,2.2-2.9,4-2.8    c1.8,0.1,3.4,1.3,3.8,3.1l8.6,33.7c0.4,1.5-0.1,3.1-1.3,4.1C402.7,262.1,401.8,262.4,400.8,262.4z M388.6,248.6l6.1,2.7l-3.1-12    L388.6,248.6z"/></g><path class="st0" d="M312.6,218.6c-0.3,0-0.7,0-1-0.1c-0.3-0.1-2.1-0.5-3.5-1.2c-2.5-1.2-4-3.7-5.5-6.1c-1.3-2.2-2.8-4.6-4.4-4.9   c-1.6-0.3-4.3,1.1-7.4,3.6c-1.5,1.4-4.3,1.9-7.1,1.3c-2.2-0.5-6.2-2.1-8.4-7.5c-0.8-2.2-2.8-5.4-4-6.3c-0.4,0.3-1.4,1.3-3.1,4.4   c-1,1.8-4.6,7.2-9.8,7.6c-2,0.2-4.8-0.3-7.4-3.4c-2.5-2.5-5.7-9.1-9.7-17.4c-1.1-2.3-2.1-4.4-2.8-5.6c-0.7-1.4-1.2-1.8-1.4-1.9   c0.1,0.1-0.4,0.5-1,1.6c-10.9,22.9-16.7,24.4-20.9,22.9c-0.6-0.3-1.2-0.5-1.7-0.8c-2-1.1-2.6-1.4-4.6,0.6c-0.3,0.3-0.9,1.3-1.3,2   c-2.4,3.8-6.4,10.3-14.2,11.1c-2.3,0.2-4.3-1.4-4.5-3.6c-0.2-2.2,1.4-4.3,3.7-4.5c3.5-0.4,5.7-3.5,8.1-7.3c0.9-1.4,1.6-2.5,2.4-3.4   c6.1-6.5,12-3.4,14.3-2.1c1.5-1.2,5.4-5.8,11.2-18c0,0,0.2-0.4,0.2-0.4c2-3.9,5-6.2,8.5-6.2c0,0,0,0,0.1,0c3.5,0,6.6,2.3,8.5,6.4   c0.6,1.2,1.7,3.3,2.8,5.8c2.4,5,6.4,13.4,8.4,15.4c0.6,0.7,0.8,0.7,0.8,0.7c0.5-0.1,2.2-1.7,3.2-3.4c2.3-4.2,5.3-8.7,10.4-8.7   c7.3,0.2,11.5,11.5,11.5,11.6c1,2.4,2.5,2.5,3.1,2.5c5.2-4.1,9.6-5.7,13.6-5.1c5.3,0.9,8.1,5.4,10.1,8.7c0.6,1.1,1.6,2.7,2.1,3   c0.4,0.2,1.4,0.5,1.9,0.6c2.2,0.6,3.5,2.8,3,5C316.1,217.3,314.4,218.6,312.6,218.6z M285.7,203.5c-0.1,0.1-0.2,0.1-0.3,0.2   C285.5,203.7,285.6,203.6,285.7,203.5z"/><g><path class="st0" d="M90.4,288c-1.3,0-2.5-0.4-3.6-1.1c-2.5-1.7-4-5-4-9.2v-79.6c0-5.3,2.4-11.7,7-13.8l78.7-36    c2.1-1,4.5-0.8,6.4,0.4c2.6,1.7,4.1,5.1,4.1,9.4v81.8c0,5.4-2.4,11.9-7.1,13.9l-78.7,33.6C92.2,287.8,91.3,288,90.4,288z     M89.9,279.9C89.9,279.9,89.9,279.9,89.9,279.9L89.9,279.9z M170.5,156.4l-77.3,35.4c-0.7,0.4-2.2,3-2.2,6.4v79.6    c0,0.7,0.1,1.3,0.2,1.7l77.4-33c0.6-0.4,2.1-3,2.1-6.4v-81.8C170.7,157.4,170.6,156.8,170.5,156.4z"/><path class="st0" d="M127.3,251.6c-2.4,0-4.8-0.7-7-2.1c-6-3.9-9.5-12.9-9.5-24.1c0-17.4,8.2-34.7,18.8-39.5c2.1-0.9,4.5,0,5.4,2    c0.9,2.1,0,4.5-2,5.4c-6.7,3-13.9,16.6-13.9,32c0,10,3.1,15.5,5.8,17.3c1.4,1,3,1,4.8,0.2c6.7-2.9,13.9-16.4,13.9-32    c0-2.3,1.8-4.1,4.1-4.1s4.1,1.8,4.1,4.1c0,17.6-8.3,34.9-18.8,39.5C131,251.2,129.1,251.6,127.3,251.6z"/><path class="st0" d="M129.8,232.8c-1.3,0-2.5-0.4-3.6-1.1c-2.6-1.7-4.1-5.2-4.1-9.6c0-5.5,2.5-12.2,7.3-14.3    c2.1-0.9,4.5,0,5.4,2.1c0.9,2.1,0,4.5-2.1,5.4c-0.7,0.4-2.4,3.2-2.4,6.8c0,0.5,0,0.9,0.1,1.3c1.2-1.8,3.6-2.4,5.5-1.2    c1.9,1.2,2.6,3.7,1.4,5.6c-1.3,2.1-2.8,3.6-4.6,4.3C131.7,232.6,130.8,232.8,129.8,232.8z"/></g><g><g><path class="st1" d="M201.8,343.4l-7.8-2.4c0.5-1.5,1-3,1.5-4.4c0.6-1.5,1.3-3,2-4.4c8.4-16.8,24.5-26.8,43.2-26.8h24.6     c18.6,0,34.8,10,43.2,26.8c0.7,1.4,1.4,2.9,2,4.4c0.6,1.4,1.1,2.9,1.5,4.4l-7.9,2.3c-0.4-1.3-0.8-2.5-1.3-3.7     c-0.5-1.3-1.1-2.6-1.7-3.8c-7.1-14.2-20.1-22.3-35.8-22.3h-24.6c-15.7,0-28.8,8.1-35.8,22.3c-0.6,1.2-1.2,2.5-1.7,3.8     C202.6,340.9,202.1,342.1,201.8,343.4z"/><path class="st1" d="M252.9,297.2c-17.2,0-28.7-13.2-28.7-32.7c0-19.6,11.5-32.7,28.7-32.7c17.2,0,28.7,13.2,28.7,32.7     C281.6,284.1,270,297.2,252.9,297.2z M252.9,239.9c-15.1,0-20.5,13.2-20.5,24.6c0,11.3,5.4,24.6,20.5,24.6     c15.1,0,20.5-13.2,20.5-24.6C273.4,253.2,268,239.9,252.9,239.9z"/></g><path class="st0" d="M330.7,395.5h-8.2v-25.4c0-15.4-12.5-27.8-27.9-27.8h-83.6c-15.4,0-27.9,12.5-27.9,27.8v25.4H175v-25.4    c0-19.9,16.2-36,36.1-36h83.6c19.9,0,36.1,16.2,36.1,36V395.5z"/></g><path class="st0" d="M334.8,137.6h-164c-2.3,0-4.1-1.8-4.1-4.1s1.8-4.1,4.1-4.1h164c2.3,0,4.1,1.8,4.1,4.1S337.1,137.6,334.8,137.6   z"/></g></svg>