<?xml version="1.0" ?><svg id="Слой_1" style="enable-background:new 0 0 500 500;" version="1.1" viewBox="0 0 500 500" xml:space="preserve" xmlns="http://www.w3.org/2000/svg" xmlns:xlink="http://www.w3.org/1999/xlink"><style type="text/css">
	.st0{fill:#21211E;}
	.st1{fill:#DF331B;}
</style><g><path class="st0" d="M318.9,407.4H87c-2.9,0-5.3-2.4-5.3-5.3V107c0-2.9,2.4-5.3,5.3-5.3h231.9c2.9,0,5.3,2.4,5.3,5.3v36.9   c0,2.9-2.4,5.3-5.3,5.3s-5.3-2.4-5.3-5.3v-31.6H92.3v284.6h221.4V223c0-2.9,2.4-5.3,5.3-5.3s5.3,2.4,5.3,5.3v179.2   C324.2,405.1,321.8,407.4,318.9,407.4z"/><path class="st0" d="M155.5,381.1h-42.2c-2.9,0-5.3-2.4-5.3-5.3V302c0-8.7,7.1-15.8,15.8-15.8H145c8.7,0,15.8,7.1,15.8,15.8v73.8   C160.8,378.7,158.4,381.1,155.5,381.1z M118.6,370.5h31.6V302c0-2.9-2.4-5.3-5.3-5.3h-21.1c-2.9,0-5.3,2.4-5.3,5.3V370.5z"/><path class="st0" d="M224,381.1h-42.2c-2.9,0-5.3-2.4-5.3-5.3v-42.2c0-8.7,7.1-15.8,15.8-15.8h21.1c8.7,0,15.8,7.1,15.8,15.8v42.2   C229.3,378.7,226.9,381.1,224,381.1z M187.1,370.5h31.6v-36.9c0-2.9-2.4-5.3-5.3-5.3h-21.1c-2.9,0-5.3,2.4-5.3,5.3V370.5z"/><path class="st0" d="M292.5,381.1h-42.2c-2.9,0-5.3-2.4-5.3-5.3V265.1c0-8.7,7.1-15.8,15.8-15.8H282c8.7,0,15.8,7.1,15.8,15.8   v110.7C297.8,378.7,295.5,381.1,292.5,381.1z M255.7,370.5h31.6V265.1c0-2.9-2.4-5.3-5.3-5.3h-21.1c-2.9,0-5.3,2.4-5.3,5.3V370.5z"/><g><path class="st1" d="M197.2,273.5c-0.1,0-0.1,0-0.2,0c-1.6-0.1-3.2-0.9-4.1-2.2l-21-30l-12.8,12c-1.1,1.1-2.7,1.6-4.2,1.4    c-1.5-0.2-2.9-1-3.8-2.3l-17.9-26.8l-21.9,17.5c-2.3,1.8-5.6,1.5-7.4-0.8c-1.8-2.3-1.5-5.6,0.8-7.4l26.4-21.1    c1.2-0.9,2.7-1.3,4.1-1.1c1.5,0.2,2.8,1.1,3.6,2.3l17.6,26.5l12.7-11.9c1.1-1,2.6-1.6,4.1-1.4c1.5,0.2,2.9,1,3.8,2.2l20.5,29.3    l59.3-71.5c0.9-1.1,2.3-1.8,3.8-1.9c1.5,0,2.9,0.5,4,1.5l22.4,22.4l43.7-48.6c1-1.1,2.3-1.7,4-1.7c1.5,0,3,0.7,3.9,1.8l27.7,32.3    l43.4-48.2c2-2.2,5.3-2.3,7.4-0.4c2.2,1.9,2.3,5.3,0.4,7.4l-47.4,52.7c-1,1.1-2.5,1.6-4,1.7c-1.5,0-3-0.7-3.9-1.8L334.6,173    l-43.4,48.2c-1,1.1-2.3,1.7-3.8,1.7c-1.4,0.1-2.8-0.5-3.9-1.5l-22.3-22.3l-60,72.4C200.3,272.8,198.8,273.5,197.2,273.5z"/><path class="st1" d="M416.6,172.1c-2.9,0-5.3-2.4-5.3-5.3V151h-15.8c-2.9,0-5.3-2.4-5.3-5.3c0-2.9,2.4-5.3,5.3-5.3h21.1    c2.9,0,5.3,2.4,5.3,5.3v21.1C421.8,169.8,419.5,172.1,416.6,172.1z"/></g><path class="st0" d="M239.8,138.6h-73.8c-2.9,0-5.3-2.4-5.3-5.3s2.4-5.3,5.3-5.3h73.8c2.9,0,5.3,2.4,5.3,5.3   S242.8,138.6,239.8,138.6z"/><path class="st0" d="M271.5,165h-137c-2.9,0-5.3-2.4-5.3-5.3c0-2.9,2.4-5.3,5.3-5.3h137c2.9,0,5.3,2.4,5.3,5.3   C276.7,162.6,274.4,165,271.5,165z"/></g></svg>